<mxfile host="app.diagrams.net" agent="Mozilla/5.0 (Windows NT 10.0; Win64; x64) AppleWebKit/537.36 (KHTML, like Gecko) Chrome/129.0.0.0 Safari/537.36" version="24.7.16">
  <diagram name="Сторінка-1" id="a15ooeQg4Y9sIGHAAZtk">
    <mxGraphModel dx="1235" dy="614" grid="1" gridSize="10" guides="1" tooltips="1" connect="1" arrows="1" fold="1" page="1" pageScale="1" pageWidth="827" pageHeight="1169" math="0" shadow="0">
      <root>
        <mxCell id="0" />
        <mxCell id="1" parent="0" />
        <mxCell id="Jp-Pr1Up69_AB7Yft42A-3" value="" style="edgeStyle=orthogonalEdgeStyle;rounded=0;orthogonalLoop=1;jettySize=auto;html=1;endArrow=none;endFill=0;entryX=0.5;entryY=0;entryDx=0;entryDy=0;" parent="1" source="Jp-Pr1Up69_AB7Yft42A-1" edge="1">
          <mxGeometry relative="1" as="geometry">
            <mxPoint x="414" y="120" as="targetPoint" />
          </mxGeometry>
        </mxCell>
        <mxCell id="Jp-Pr1Up69_AB7Yft42A-1" value="Початок" style="rounded=1;whiteSpace=wrap;html=1;" parent="1" vertex="1">
          <mxGeometry x="354" y="20" width="120" height="60" as="geometry" />
        </mxCell>
        <mxCell id="Jp-Pr1Up69_AB7Yft42A-12" value="" style="edgeStyle=orthogonalEdgeStyle;shape=connector;rounded=0;orthogonalLoop=1;jettySize=auto;html=1;strokeColor=default;align=center;verticalAlign=middle;fontFamily=Helvetica;fontSize=11;fontColor=default;labelBackgroundColor=default;endArrow=none;endFill=0;" parent="1" edge="1">
          <mxGeometry relative="1" as="geometry">
            <mxPoint x="414" y="130" as="targetPoint" />
            <mxPoint x="414" y="90" as="sourcePoint" />
          </mxGeometry>
        </mxCell>
        <mxCell id="Jp-Pr1Up69_AB7Yft42A-18" value="" style="edgeStyle=orthogonalEdgeStyle;shape=connector;rounded=0;orthogonalLoop=1;jettySize=auto;html=1;strokeColor=default;align=center;verticalAlign=middle;fontFamily=Helvetica;fontSize=11;fontColor=default;labelBackgroundColor=default;endArrow=none;endFill=0;" parent="1" source="Jp-Pr1Up69_AB7Yft42A-16" edge="1">
          <mxGeometry relative="1" as="geometry">
            <mxPoint x="414" y="230" as="targetPoint" />
          </mxGeometry>
        </mxCell>
        <mxCell id="Jp-Pr1Up69_AB7Yft42A-16" value="s, t" style="shape=parallelogram;perimeter=parallelogramPerimeter;whiteSpace=wrap;html=1;fixedSize=1;fontFamily=Helvetica;fontSize=11;fontColor=default;labelBackgroundColor=default;" parent="1" vertex="1">
          <mxGeometry x="354" y="130" width="120" height="60" as="geometry" />
        </mxCell>
        <mxCell id="Jp-Pr1Up69_AB7Yft42A-20" value="" style="edgeStyle=orthogonalEdgeStyle;shape=connector;rounded=0;orthogonalLoop=1;jettySize=auto;html=1;strokeColor=default;align=center;verticalAlign=middle;fontFamily=Helvetica;fontSize=11;fontColor=default;labelBackgroundColor=default;endArrow=none;endFill=0;entryX=0.5;entryY=0;entryDx=0;entryDy=0;" parent="1" target="Jp-Pr1Up69_AB7Yft42A-23" edge="1">
          <mxGeometry relative="1" as="geometry">
            <mxPoint x="414" y="360" as="targetPoint" />
            <mxPoint x="414" y="320" as="sourcePoint" />
          </mxGeometry>
        </mxCell>
        <mxCell id="Jp-Pr1Up69_AB7Yft42A-22" value="" style="edgeStyle=orthogonalEdgeStyle;shape=connector;rounded=0;orthogonalLoop=1;jettySize=auto;html=1;strokeColor=default;align=center;verticalAlign=middle;fontFamily=Helvetica;fontSize=11;fontColor=default;labelBackgroundColor=default;endArrow=none;endFill=0;exitX=0.498;exitY=0.894;exitDx=0;exitDy=0;exitPerimeter=0;" parent="1" source="Jp-Pr1Up69_AB7Yft42A-23" target="Jp-Pr1Up69_AB7Yft42A-21" edge="1">
          <mxGeometry relative="1" as="geometry">
            <mxPoint x="420" y="430" as="sourcePoint" />
          </mxGeometry>
        </mxCell>
        <mxCell id="Jp-Pr1Up69_AB7Yft42A-21" value="Кінець" style="whiteSpace=wrap;html=1;rounded=1;arcSize=42;" parent="1" vertex="1">
          <mxGeometry x="354" y="450" width="120" height="60" as="geometry" />
        </mxCell>
        <mxCell id="Jp-Pr1Up69_AB7Yft42A-23" value="c" style="shape=document;whiteSpace=wrap;html=1;boundedLbl=1;fontFamily=Helvetica;fontSize=11;fontColor=default;labelBackgroundColor=default;" parent="1" vertex="1">
          <mxGeometry x="359.5" y="360" width="109" height="50" as="geometry" />
        </mxCell>
        <mxCell id="WVNO3Ja-GEgBj2tXD5zG-1" value="&lt;span style=&quot;font-size: 9.5pt; line-height: 13.4267px; font-family: &amp;quot;Cascadia Mono&amp;quot;; background-image: initial; background-position: initial; background-size: initial; background-repeat: initial; background-attachment: initial; background-origin: initial; background-clip: initial;&quot; lang=&quot;EN-US&quot;&gt;c = (h&lt;sup&gt;4&lt;/sup&gt;(s,t) + h(1, s&lt;sup&gt;2&lt;/sup&gt;+&lt;br&gt;t&lt;sup&gt;2&lt;/sup&gt;)) / (1 + h&lt;sup&gt;2&lt;/sup&gt;(st, 1))&lt;/span&gt;" style="shape=process;whiteSpace=wrap;html=1;backgroundOutline=1;" vertex="1" parent="1">
          <mxGeometry x="304" y="230" width="220" height="90" as="geometry" />
        </mxCell>
        <mxCell id="WVNO3Ja-GEgBj2tXD5zG-4" value="" style="edgeStyle=orthogonalEdgeStyle;rounded=0;orthogonalLoop=1;jettySize=auto;html=1;endArrow=none;endFill=0;" edge="1" parent="1" source="WVNO3Ja-GEgBj2tXD5zG-2" target="WVNO3Ja-GEgBj2tXD5zG-3">
          <mxGeometry relative="1" as="geometry" />
        </mxCell>
        <mxCell id="WVNO3Ja-GEgBj2tXD5zG-2" value="h(a,b)" style="rounded=1;whiteSpace=wrap;html=1;arcSize=50;" vertex="1" parent="1">
          <mxGeometry x="650" y="20" width="120" height="50" as="geometry" />
        </mxCell>
        <mxCell id="WVNO3Ja-GEgBj2tXD5zG-6" value="" style="edgeStyle=orthogonalEdgeStyle;rounded=0;orthogonalLoop=1;jettySize=auto;html=1;endArrow=none;endFill=0;" edge="1" parent="1" source="WVNO3Ja-GEgBj2tXD5zG-3" target="WVNO3Ja-GEgBj2tXD5zG-5">
          <mxGeometry relative="1" as="geometry" />
        </mxCell>
        <mxCell id="WVNO3Ja-GEgBj2tXD5zG-3" value="return (a / (b&lt;sup&gt;2&lt;/sup&gt; + 1)) + (1 / (a&lt;sup&gt;2&lt;/sup&gt; + b&lt;sup&gt;2&lt;/sup&gt;));" style="rounded=0;whiteSpace=wrap;html=1;" vertex="1" parent="1">
          <mxGeometry x="645" y="120" width="130" height="60" as="geometry" />
        </mxCell>
        <mxCell id="WVNO3Ja-GEgBj2tXD5zG-5" value="" style="rounded=1;whiteSpace=wrap;html=1;arcSize=50;" vertex="1" parent="1">
          <mxGeometry x="650" y="230" width="120" height="50" as="geometry" />
        </mxCell>
      </root>
    </mxGraphModel>
  </diagram>
</mxfile>
